<?xml version="1.0" encoding="utf-8"?>
<!-- Generator: Adobe Illustrator 25.1.0, SVG Export Plug-In . SVG Version: 6.00 Build 0)  -->
<svg version="1.1" id="Layer_1" xmlns="http://www.w3.org/2000/svg" xmlns:xlink="http://www.w3.org/1999/xlink" x="0px" y="0px"
	 viewBox="0 0 999 357.5" style="enable-background:new 0 0 999 357.5;" xml:space="preserve">
<style type="text/css">
	.st0{fill:#095D84;}
	.st1{fill:none;stroke:#C6261F;stroke-width:0.3075;stroke-miterlimit:10;stroke-dasharray:1.2299;}
	.st2{fill:#01608B;}
	.st3{fill:#E62414;}
	.st4{fill:#E73E17;}
	.st5{fill:#E9551C;}
	.st6{fill:#EA6120;}
	.st7{fill:#ED7624;}
	.st8{fill:#F08B29;}
	.st9{fill:#F39D29;}
	.st10{fill:#F6B230;}
	.st11{fill:#FAC83E;}
	.st12{fill:#1577A5;}
	.st13{fill:#1A8EC2;}
	.st14{fill:#31A6D6;}
	.st15{fill:#30BCEF;}
</style>
<g>
	<path id="XMLID_35_" class="st0" d="M705.2,143.9"/>
	<path id="XMLID_26_" class="st1" d="M705.4,142.8"/>
	<path class="st2" d="M151,241.8h26.2V84.6H132L89.5,202.9l-43-118.3H0.7v157.2h26.2V108.5l50.3,133.3h22.4L151,110.7V241.8z"/>
	<path id="XMLID_23_" class="st2" d="M235,139.5c-46.7,0-45.9,42.5-45.9,54.7c0,9.4,6.6,40.4,33.1,45.8c27.7,5.6,49.7-4.1,49.7-4.1
		v-18.3c0,0-8.9,3.8-31.5,4.5c-25.7,0.8-28-24.8-28-24.8l62.2,0.1C274.7,197.6,282.4,139.5,235,139.5z M212.5,180.5
		c0,0,0.5-20.3,20.5-20.3s20,20.3,20,20.3H212.5z"/>
	<path id="XMLID_20_" class="st2" d="M601.6,139.5c-46.7,0-45.9,42.5-45.9,54.7c0,9.4,7,40.4,33.6,45.8c27.7,5.6,50.2-4.1,50.2-4.1
		v-18.3c0,0-9.3,3.8-32,4.5c-25.7,0.8-28.2-24.8-28.2-24.8l62.1,0.1C641.4,197.6,649,139.5,601.6,139.5z M579.1,180.5
		c0,0,0.5-20.3,20.5-20.3s20,20.3,20,20.3H579.1z"/>
	<path id="XMLID_17_" class="st2" d="M857.8,139.5c-46.7,0-45.9,42.5-45.9,54.7c0,9.4,6.4,40.4,33,45.8c27.7,5.6,49.6-4.1,49.6-4.1
		v-18.3c0,0-8.7,3.8-31.4,4.5c-25.7,0.8-27.9-24.8-27.9-24.8l62.2,0.1C897.4,197.6,905.2,139.5,857.8,139.5z M835.2,180.5
		c0,0,0.5-20.3,20.5-20.3s20,20.3,20,20.3H835.2z"/>
	<path id="XMLID_16_" class="st2" d="M319.8,221c-5.9-2-7.2-5.3-7.2-11.3c0-5.9,0.2-47,0.2-47h27.9v-22.1h-27.9V117l-25.9,23.6
		c0,0,0.2,51.5,0.2,69.7c0,14.1,4.6,21.6,9.5,25.2c3.6,2.7,8.8,5.3,16.3,5.9c12.4,1.1,22.7-0.2,27.8-2.5v-18.5
		C333.1,221.5,323.8,222.4,319.8,221z"/>
	<path id="XMLID_13_" class="st2" d="M427.9,148.9c-4.6-3.8-13.4-9.4-33.7-9.4c-20.3,0-32.2,7.5-32.2,7.5v18.2c0,0,17.9-7,35.3-6.1
		c20.5,1.1,15.8,22.7,15.8,22.7s-10.5-6.5-29.7-4.3c-18.6,2.1-29.6,16.8-30.7,30c-0.7,8.5,0.5,18.9,8.7,26.6
		c7.6,7.1,18.3,8,27.3,7.5c12.6-0.7,25.2-12.3,25.2-12.3v10.4h23.4c0,0,0-57.2,0-67.6C437.3,165.9,435.5,155.2,427.9,148.9z
		 M413.9,214.8c0,0-9.5,9.1-23.2,9c-5,0-15.2-3.7-14.9-14.4c0.3-10.7,13.3-14,17.9-14.3c15.4-0.9,20.2,5,20.2,5V214.8z"/>
	<polygon id="XMLID_12_" class="st2" points="522.1,140.6 497.4,212.4 472,140.6 449.1,140.6 484.7,241.8 510.1,241.8 545.6,140.6 	
		"/>
	<path id="XMLID_11_" class="st2" d="M715.7,161.7v-21c-23.7,0-30.7,6.8-34.1,12.1v-12.1h-26.2v101.2h26.2v-63.1
		C684.6,169.7,702.1,161.7,715.7,161.7z"/>
	<path id="XMLID_10_" class="st2" d="M758.2,177.7c-8.5-3.7-8.7-16,0.3-19.2c14-4.9,30.3,1.6,37.7,4.9v-17.8c0,0-9.8-6.7-32.7-6.7
		c-16.2,0-27.5,7.3-32.7,17.2c0,0-1.3,2.7-2.1,5c-0.5,1.7-1.2,5.3-1.2,8c0,14.5,8.7,22.2,21.6,26.6c12.4,4.2,31.9,4.3,27,19.1
		c-4.8,14.7-47.4,6.7-47.4,6.7l-0.2,18.6c0,0,26.8,2.7,44.3,1.2c24.8-2.1,30.8-24,25.3-40.3C793,186,766.7,181.4,758.2,177.7z"/>
	<circle class="st3" cx="706.4" cy="77.8" r="33.2"/>
	<circle class="st4" cx="787.3" cy="30.9" r="30.9"/>
	<circle class="st5" cx="883.5" cy="40.5" r="28.7"/>
	<circle class="st6" cx="953.1" cy="101.8" r="26.5"/>
	<circle class="st7" cx="974.8" cy="195.2" r="24.2"/>
	<circle class="st8" cx="938.3" cy="282.2" r="22"/>
	<circle class="st9" cx="859.2" cy="331.5" r="19.7"/>
	<circle class="st10" cx="761.7" cy="328.7" r="17.5"/>
	<circle class="st11" cx="677.6" cy="286.5" r="15.3"/>
	<circle class="st2" cx="261.3" cy="85" r="26"/>
	<circle class="st12" cx="321.4" cy="40" r="22.3"/>
	<circle class="st13" cx="393.7" cy="27.6" r="18.6"/>
	<circle class="st14" cx="464.1" cy="50.2" r="14.9"/>
	
		<ellipse transform="matrix(0.2298 -0.9732 0.9732 0.2298 303.3982 582.9601)" class="st15" cx="520" cy="99.8" rx="11.1" ry="11.1"/>
</g>
</svg>
